<svg xmlns="http://www.w3.org/2000/svg" x="0px" y="0px"
width="65" height="65"
viewBox="0 0 172 172"
style=" fill:#000000; margin: 0 1rem 0 1rem"><g fill="none" fill-rule="nonzero" stroke="none" stroke-width="1" stroke-linecap="butt" stroke-linejoin="miter" stroke-miterlimit="10" stroke-dasharray="" stroke-dashoffset="0" font-family="none" font-weight="none" font-size="none" text-anchor="none" style="mix-blend-mode: normal"><path d="M0,172v-172h172v172z" fill="none"></path><g fill="#184b4e"><path d="M8.6,68.8c-1.24059,-0.01754 -2.39452,0.63425 -3.01993,1.7058c-0.62541,1.07155 -0.62541,2.39684 0,3.46839c0.62541,1.07155 1.77935,1.72335 3.01993,1.7058c1.99952,0 3.29559,0.86404 4.945,2.9764c1.64941,2.11237 3.21914,5.36156 4.83078,8.80156c1.61164,3.44 3.26406,7.0708 5.64375,10.11844c2.37969,3.04764 5.91999,5.6236 10.36703,5.6236c4.44758,0 7.98671,-2.57598 10.36703,-5.6236c2.38031,-3.04762 4.03168,-6.67844 5.64375,-10.11844c1.61207,-3.44 3.18764,-6.68918 4.8375,-8.80156c1.64986,-2.11238 2.9443,-2.9764 4.945,-2.9764c2.00189,0 3.29462,0.86398 4.945,2.9764c1.65038,2.11243 3.22476,5.36151 4.8375,8.80156c1.61274,3.44006 3.26895,7.07082 5.65047,10.11844c2.38152,3.04761 5.91839,5.6236 10.36703,5.6236c4.44758,0 7.99343,-2.57598 10.37375,-5.6236c2.38031,-3.04762 4.03168,-6.67844 5.64375,-10.11844c1.61207,-3.44 3.18092,-6.68918 4.83078,-8.80156c1.64986,-2.11238 2.9443,-2.9764 4.945,-2.9764c2.00426,0 3.30728,0.864 4.95844,2.9764c1.65115,2.1124 3.22438,5.36162 4.8375,8.80156c1.61312,3.43995 3.26215,7.07089 5.64375,10.11844c2.3816,3.04755 5.9251,5.6236 10.37375,5.6236c4.44918,0 7.99161,-2.576 10.37375,-5.6236c2.38214,-3.0476 4.03058,-6.67838 5.64375,-10.11844c1.61317,-3.44005 3.19339,-6.68911 4.84422,-8.80156c1.65083,-2.11245 2.94193,-2.9764 4.945,-2.9764c1.24059,0.01754 2.39452,-0.63425 3.01993,-1.7058c0.62541,-1.07155 0.62541,-2.39684 0,-3.46839c-0.62541,-1.07155 -1.77935,-1.72335 -3.01993,-1.7058c-4.44865,0 -7.98543,2.57604 -10.36703,5.6236c-2.3816,3.04755 -4.03735,6.67849 -5.65047,10.11844c-1.61312,3.43994 -3.18635,6.68916 -4.8375,8.80156c-1.65115,2.1124 -2.94746,2.9764 -4.95172,2.9764c-2.00307,0 -3.30089,-0.86396 -4.95172,-2.9764c-1.65084,-2.11245 -3.22433,-5.36151 -4.8375,-8.80156c-1.61317,-3.44006 -3.26833,-7.07084 -5.65047,-10.11844c-2.38213,-3.0476 -5.92457,-5.6236 -10.37375,-5.6236c-4.44758,0 -7.98672,2.57598 -10.36703,5.6236c-2.38032,3.04762 -4.03168,6.67844 -5.64375,10.11844c-1.61207,3.44 -3.18092,6.68918 -4.83078,8.80156c-1.64986,2.11238 -2.95102,2.9764 -4.95172,2.9764c-2.00308,0 -3.2943,-0.86402 -4.945,-2.9764c-1.6507,-2.11239 -3.22481,-5.36162 -4.8375,-8.80156c-1.61269,-3.43995 -3.26949,-7.07087 -5.65047,-10.11844c-2.38098,-3.04757 -5.91892,-5.6236 -10.36703,-5.6236c-4.44758,0 -7.98672,2.57598 -10.36703,5.6236c-2.38032,3.04762 -4.03168,6.67844 -5.64375,10.11844c-1.61207,3.44 -3.18764,6.68918 -4.8375,8.80156c-1.64986,2.11238 -2.9443,2.9764 -4.945,2.9764c-1.99952,0 -3.29559,-0.86404 -4.945,-2.9764c-1.64941,-2.11237 -3.21914,-5.36156 -4.83078,-8.80156c-1.61164,-3.44 -3.26406,-7.0708 -5.64375,-10.11844c-2.37969,-3.04764 -5.91999,-5.6236 -10.36703,-5.6236z"></path></g></g></svg>